<?xml version="1.0" encoding="utf-8"?>
<!-- Generator: Adobe Illustrator 20.1.0, SVG Export Plug-In . SVG Version: 6.00 Build 0)  -->
<svg version="1.1" id="svg22880" xmlns="http://www.w3.org/2000/svg" xmlns:xlink="http://www.w3.org/1999/xlink" x="0px" y="0px"
	 viewBox="0 0 156 108" style="enable-background:new 0 0 156 108;" xml:space="preserve">
<style type="text/css">
	.st0{fill:#18589F;}
	.st1{fill:#877B6F;}
</style>
<g id="g7356">
	<g id="g7362" transform="translate(428.0269,191.3445)">
		<path id="path7364" class="st0" d="M-350.2-164c-1.9,0-3.5-1.6-3.5-3.5c0-1.9,1.6-3.5,3.5-3.5c1.9,0,3.5,1.6,3.5,3.5
			C-346.7-165.6-348.3-164-350.2-164 M-350.2-183.5c-8.8,0-16,7.2-16,16c0,8.8,7.2,16,16,16c8.8,0,16-7.2,16-16
			C-334.3-176.3-341.4-183.5-350.2-183.5"/>
	</g>
	<g id="g7366" transform="translate(431.0455,179.5372)">
		<path id="path7368" class="st0" d="M-342-108l0.6-0.3c0.6-0.3,3.8-2.1,3.2-4.3c-0.5-1.7-2.6-2.4-2.6-2.4s-13.3-4-21.6-6.7
			c-8.5-2.8-8.8-8.9-8.9-10c-0.5-6.7,4.6-9.5,5.3-9.9l0.4-0.2l0.1,0.2l-0.3,0.1c-0.4,0.2-3,1.6-2.6,3.5c0.3,1.8,2.6,2.4,2.6,2.4
			s13.3,4,21.6,6.7c8.5,2.8,8.8,8.9,8.9,10c0.5,7.4-5,10.3-5.9,10.7l-0.6,0.3L-342-108z"/>
	</g>
	<g id="g7370" transform="translate(413.0009,177.73441)">
		<path id="path7372" class="st1" d="M-391.4-99.5c-0.8-1.1-2.1-1.7-3.4-1.7c-1.1,0-2.1,0.4-3,1.1c-0.9,0.8-1.5,2-1.5,3.2
			c0,1.1,0.5,2.2,1.2,3c0.9,0.9,2.1,1.4,3.3,1.4c1.5,0,3-0.9,3.7-2.3h-5.3V-97h8.3v0.3c0,3.7-3.1,6.6-6.8,6.6
			c-3.7,0-6.8-2.9-6.8-6.6c0-3.8,3.1-6.7,6.8-6.7c2.6,0,5.2,1.5,6.2,4H-391.4z"/>
	</g>
	<g id="g7374" transform="translate(417.5009,178.8027)">
		<path id="path7376" class="st1" d="M-379-104.6c-3.7,0-6.7,3-6.7,6.7c0,3.7,3,6.6,6.7,6.6c3.6,0,6.6-3,6.6-6.6
			C-372.4-101.6-375.4-104.6-379-104.6 M-374.7-97.9c0,2.4-2,4.3-4.3,4.3c-2.3,0-4.3-2-4.3-4.3c0-2.4,1.9-4.4,4.3-4.4l0-0.1
			C-376.7-102.3-374.7-100.3-374.7-97.9"/>
	</g>
	<g id="g7378" transform="translate(422.2182,177.4252)">
		<path id="path7380" class="st1" d="M-366.1-98v-2.6h0.4c0.5,0,1.1-0.1,1.6,0.1c0.5,0.2,0.8,0.6,0.8,1.1c0,0.5-0.3,1-0.7,1.2
			c-0.4,0.2-1.1,0.2-1.6,0.2H-366.1z M-368.5-90.2h3.2c1.2,0,2.5-0.1,3.5-0.8c1-0.7,1.6-1.8,1.6-3c0-1.5-0.8-2.6-2.2-3.1
			c0.9-0.4,1.4-1.4,1.4-2.4c0-1.2-0.7-2.3-1.8-2.9c-1.1-0.5-2.2-0.5-3.4-0.5h-2.3V-90.2z M-366.1-92.5v-3.3h1c0.6,0,1.1,0,1.7,0.3
			c0.6,0.3,0.8,0.7,0.8,1.3c0,0.5-0.2,0.9-0.6,1.2c-0.6,0.4-1.3,0.4-2,0.4H-366.1z"/>
	</g>
	<g id="g7382" transform="translate(426.3248,178.7382)">
		<path id="path7384" class="st1" d="M-354.9-104.2h6.9v2.3h-4.5v2.9h4.3v2.3h-4.3v2.9h4.5v2.3h-6.9V-104.2z"/>
	</g>
	<g id="g7386" transform="translate(430.85181,178.7382)">
		<path id="path7388" class="st1" d="M-342.5-104.2h2.4v10.5h3.9v2.3h-6.3V-104.2z"/>
	</g>
	<path id="path7390" class="st1" d="M103.4,74.5h2.4v12.8h-2.4V74.5z"/>
	<g id="g7392" transform="translate(438.3618,178.7382)">
		<path id="path7394" class="st1" d="M-321.9-104.2h2.7l5.3,9.3v-9.3h2.4v12.8h-2.6l-5.4-9.3v9.3h-2.4V-104.2z"/>
	</g>
	<g id="g7396" transform="translate(444.31709,176.2829)">
		<path id="path7398" class="st1" d="M-305.6-92.6c0,1,0.8,1.6,1.8,1.6c0.9,0,1.7-0.7,1.7-1.6c0-1.4-1.2-1.8-2.2-2.2
			c-0.9-0.3-1.6-0.5-2.2-1.2c-0.6-0.6-1-1.6-1-2.5c0-2.1,1.7-3.6,3.8-3.6c2,0,3.8,1.6,3.7,3.6h-2.4c0-0.8-0.7-1.3-1.4-1.3
			c-0.8,0-1.3,0.6-1.3,1.3c0,0.9,0.9,1.3,1.6,1.6c0.9,0.3,1.8,0.6,2.5,1.2c0.9,0.7,1.3,1.7,1.3,2.9c0,2.3-1.9,4-4.1,4
			c-2.2,0-4.1-1.7-4.1-3.9H-305.6z"/>
	</g>
	<g id="g7400" transform="translate(411.5116,171.9278)">
		<path id="path7402" class="st1" d="M-395.4-72h-4.4v-8.7h0.9v8.1h3.5V-72z"/>
	</g>
	<g id="g7404" transform="translate(411.92149,174.2493)">
		<path id="path7406" class="st1" d="M-394.3-83h0.9l-0.9,2.4h-0.5L-394.3-83z"/>
	</g>
	<g id="g7408" transform="translate(413.66319,174.3492)">
		<path id="path7410" class="st1" d="M-389.5-83.5h-0.7l1.3-1.2h1.2L-389.5-83.5z M-388.1-79.3v0.6h-3v3.6h3.9v0.6h-4.8v-8.7h4.7
			v0.6h-3.8v3.2H-388.1z"/>
	</g>
	<g id="g7412" transform="translate(417.2188,172.4864)">
		<path id="path7414" class="st1" d="M-379.8-74.6c-0.6,1.1-2,2.3-3.9,2.3c-1.3,0-2.4-0.4-3.2-1.1c-0.9-0.8-1.4-1.9-1.4-3.4
			c0-1.4,0.5-2.6,1.4-3.4c0.8-0.8,2-1.2,3.3-1.2c1.8,0,3.1,0.9,3.7,2.1l-0.9,0.2c-0.5-0.9-1.3-1.7-2.7-1.7c-1.9,0-3.7,1.1-3.7,3.9
			c0,2.8,1.8,3.9,3.6,3.9c1.6,0,2.6-1.2,3-1.9L-379.8-74.6z"/>
	</g>
	<g id="g7416" transform="translate(417.69501,173.09351)">
		<path id="path7418" class="st1" d="M-378.5-77.5c0,3.1,2.1,4.5,4.6,4.5c2.5,0,4.6-1.4,4.6-4.5c0-3.1-2.1-4.5-4.6-4.5
			C-376.4-82-378.5-80.6-378.5-77.5L-378.5-77.5z M-373.9-81.4c1.9,0,3.6,1.2,3.6,3.9c0,2.8-1.8,3.9-3.6,3.9c-1.9,0-3.6-1.2-3.6-3.9
			C-377.6-80.3-375.8-81.4-373.9-81.4L-373.9-81.4z"/>
	</g>
	<g id="g7420" transform="translate(422.0479,171.9278)">
		<path id="path7422" class="st1" d="M-366.6-72h-4.4v-8.7h0.9v8.1h3.5V-72z"/>
	</g>
	<g id="g7424" transform="translate(423.849,173.2281)">
		<path id="path7426" class="st1" d="M-361.7-78.1v0.6h-3v3.6h3.9v0.6h-4.8V-82h4.7v0.6h-3.8v3.2H-361.7z"/>
	</g>
	<g id="g7428" transform="translate(426.49471,171.9278)">
		<path id="path7430" class="st1" d="M-354.4-72c3.1,0,4.4-1.6,4.4-4.4c0-2.9-1.4-4.3-4.4-4.3h-2.8v8.7H-354.4z M-356.3-72.6v-7.5
			h1.8c2.5,0,3.5,1.3,3.5,3.7c0,2.5-1.1,3.7-3.5,3.7H-356.3z"/>
	</g>
	<g id="g7432" transform="translate(429.5732,173.2281)">
		<path id="path7434" class="st1" d="M-346-78.1v0.6h-3v3.6h3.9v0.6h-4.8V-82h4.7v0.6h-3.8v3.2H-346z"/>
	</g>
	<g id="g7436" transform="translate(432.5676,171.9278)">
		<path id="path7438" class="st1" d="M-337.8-72h-4.4v-8.7h0.9v8.1h3.5V-72z"/>
	</g>
	<g id="g7440" transform="translate(432.9877,174.18559)">
		<path id="path7442" class="st1" d="M-336.6-82.7h0.9l-0.9,2.4h-0.5L-336.6-82.7z"/>
	</g>
	<path id="path7444" class="st1" d="M100.6,91.2h0.9v8.7h-0.9V91.2z"/>
	<g id="g7446" transform="translate(436.7939,172.1763)">
		<path id="path7448" class="st1" d="M-326.2-73.2c0.5-1.4,1.6-4,3.2-7.8h1.4v8.7h-0.9c0-4,0-6.6,0-8h0c-0.5,1.4-1.6,4-3.3,8h-0.9
			c-1.6-4-2.7-6.6-3.3-8h0c0,1.4,0,4.1,0,8h-0.9v-8.7h1.4C-327.8-77.1-326.8-74.6-326.2-73.2L-326.2-73.2z"/>
	</g>
	<g id="g7450" transform="translate(440.34821,172.6653)">
		<path id="path7452" class="st1" d="M-316.5-75.5l1.1,2.8h1l-3.7-8.7h-1.1l-3.7,8.7h1l1.1-2.8H-316.5z M-316.8-76.1h-3.7l0.9-2.4
			c0.3-0.8,0.6-1.5,0.9-2.4h0.1c0.3,0.8,0.6,1.6,0.9,2.4L-316.8-76.1z"/>
	</g>
	<g id="g7454" transform="translate(443.7092,172.1759)">
		<path id="path7456" class="st1" d="M-307.3-73.2c-1,0.7-2.3,1.1-3.9,1.1c-2.8,0-4.9-1.7-4.9-4.5c0-3.2,2.5-4.5,4.9-4.5
			c1.7,0,2.9,0.6,3.8,1.7l-0.9,0.3c-0.7-0.9-1.5-1.4-2.8-1.4c-1.7,0-4,1-4,3.9c0,2.5,1.7,3.9,4,3.9c1.1,0,2.2-0.3,2.9-0.7v-2.3h-2.6
			v-0.6h3.5V-73.2z"/>
	</g>
	<g id="g7458" transform="translate(445.5966,173.2281)">
		<path id="path7460" class="st1" d="M-302.1-78.1v0.6h-3v3.6h3.9v0.6h-4.8V-82h4.7v0.6h-3.8v3.2H-302.1z"/>
	</g>
</g>
</svg>
