<?xml version="1.0" encoding="utf-8"?>
<!-- Generator: Adobe Illustrator 20.1.0, SVG Export Plug-In . SVG Version: 6.00 Build 0)  -->
<svg version="1.1" id="Calque_1" xmlns="http://www.w3.org/2000/svg" xmlns:xlink="http://www.w3.org/1999/xlink" x="0px" y="0px"
	 viewBox="0 0 18 22" style="enable-background:new 0 0 18 22;" xml:space="preserve">
<g>
	<path d="M16.6,15.1c0,1.1-0.2,2-0.6,2.7c-0.4,0.7-1,1.3-1.7,1.8c-0.7,0.4-1.5,0.8-2.4,1c-0.9,0.2-1.8,0.3-2.8,0.3H1.1V1H9
		c0.8,0,1.5,0.1,2.4,0.2c0.8,0.2,1.5,0.4,2.2,0.8c0.7,0.4,1.2,0.9,1.6,1.6c0.4,0.7,0.6,1.5,0.6,2.5c0,1.1-0.3,2-0.9,2.7
		c-0.6,0.7-1.4,1.2-2.4,1.6v0.1c0.6,0.1,1.1,0.3,1.6,0.5c0.5,0.3,0.9,0.6,1.3,1c0.4,0.4,0.7,0.8,0.9,1.4
		C16.4,13.9,16.6,14.4,16.6,15.1z M11.1,6.8c0-0.7-0.3-1.2-0.8-1.5C9.8,5,9.1,4.8,8.1,4.8H5.7v4.1h2.6c0.9,0,1.6-0.2,2.1-0.5
		C10.9,8,11.1,7.5,11.1,6.8z M11.8,14.6c0-0.8-0.3-1.4-0.9-1.7c-0.6-0.3-1.4-0.5-2.5-0.5H5.7V17h2.7c0.4,0,0.8,0,1.2-0.1
		c0.4-0.1,0.8-0.2,1.1-0.3s0.6-0.4,0.8-0.7C11.7,15.5,11.8,15.1,11.8,14.6z"/>
</g>
</svg>
